<svg xmlns="http://www.w3.org/2000/svg" version="1.1" width="3300" height="2000"><g id="Notes"><style>
    text {
      font-family: monospace;
      text-anchor: middle;
    }
    text.emphasis {
      font-weight:bold;
    }
    text.lanchor {
      text-anchor: start;
    }
  </style><rect height="2200" id="artboard" fill="white" width="3300" x="0" y="0"/><line id="" style="fill:none;stroke:black;stroke-width:0.5;" x1="263" x2="3036" y1="292" y2="292"/><text class="lanchor emphasis" transform="matrix(1 0 0 1 263 322)">Weight/Scale Variations</text><text transform="matrix(1 0 0 1 559.711 322)">Ultralight</text><text transform="matrix(1 0 0 1 856.422 322)">Thin</text><text transform="matrix(1 0 0 1 1153.13 322)">Light</text><text transform="matrix(1 0 0 1 1449.84 322)">Regular</text><text transform="matrix(1 0 0 1 1746.56 322)">Medium</text><text transform="matrix(1 0 0 1 2043.27 322)">Semibold</text><text transform="matrix(1 0 0 1 2339.98 322)">Bold</text><text transform="matrix(1 0 0 1 2636.69 322)">Heavy</text><text transform="matrix(1 0 0 1 2933.4 322)">Black</text><text id="template-version" style="text-anchor: end;" transform="matrix(1 0 0 1 3036 1933)">Template v.1.0</text><text class="lanchor" transform="matrix(1 0 0 1 263 726)">Small</text><text class="lanchor" transform="matrix(1 0 0 1 263 1156)">Medium</text><text class="lanchor" transform="matrix(1 0 0 1 263 1586)">Large</text></g><g id="Guides"><g id="H-reference" style="fill:#27AAE1;stroke:none;" transform="matrix(1 0 0 1 339 696)"><path d="M 54.9316 0 L 57.666 0 L 30.5664 -70.459 L 28.0762 -70.459 L 0.976562 0 L 3.66211 0 L 12.9395 -24.4629 L 45.7031 -24.4629 Z M 29.1992 -67.0898 L 29.4434 -67.0898 L 44.8242 -26.709 L 13.8184 -26.709 Z"/></g><line id="Baseline-S" style="fill:none;stroke:#27AAE1;opacity:1;stroke-width:0.577;" x1="263" x2="3036" y1="696" y2="696"/><line id="Capline-S" style="fill:none;stroke:#27AAE1;opacity:1;stroke-width:0.577;" x1="263" x2="3036" y1="625.541" y2="625.541"/><g id="H-reference" style="fill:#27AAE1;stroke:none;" transform="matrix(1 0 0 1 339 1126)"><path d="M 54.9316 0 L 57.666 0 L 30.5664 -70.459 L 28.0762 -70.459 L 0.976562 0 L 3.66211 0 L 12.9395 -24.4629 L 45.7031 -24.4629 Z M 29.1992 -67.0898 L 29.4434 -67.0898 L 44.8242 -26.709 L 13.8184 -26.709 Z"/></g><line id="Baseline-M" style="fill:none;stroke:#27AAE1;opacity:1;stroke-width:0.577;" x1="263" x2="3036" y1="1126" y2="1126"/><line id="Capline-M" style="fill:none;stroke:#27AAE1;opacity:1;stroke-width:0.577;" x1="263" x2="3036" y1="1055.54" y2="1055.54"/><g id="H-reference" style="fill:#27AAE1;stroke:none;" transform="matrix(1 0 0 1 339 1556)"><path d="M 54.9316 0 L 57.666 0 L 30.5664 -70.459 L 28.0762 -70.459 L 0.976562 0 L 3.66211 0 L 12.9395 -24.4629 L 45.7031 -24.4629 Z M 29.1992 -67.0898 L 29.4434 -67.0898 L 44.8242 -26.709 L 13.8184 -26.709 Z"/></g><line id="Baseline-L" style="fill:none;stroke:#27AAE1;opacity:1;stroke-width:0.577;" x1="263" x2="3036" y1="1556" y2="1556"/><line id="Capline-L" style="fill:none;stroke:#27AAE1;opacity:1;stroke-width:0.577;" x1="263" x2="3036" y1="1485.54" y2="1485.54"/><rect height="119.336" id="left-margin" style="fill:darkred;stroke:none;opacity:0.4;" width="12.4512" x="1394.06" y="1030.79"/><rect height="119.336" id="right-margin" style="fill:darkgreen;stroke:none;opacity:0.4;" width="12.4512" x="1502.5112" y="1030.79"/><rect x="1406.5112" y="1045" width="96" height="96" fill="none" stroke="blue" stroke-dasharray="5"/><rect x="1394.06" y="1030.79" width="120.9024" height="119.336" fill="none" stroke="blue"/></g><g id="Symbols"><g id="Bold-L" transform="matrix(1 0 0 1 2266 1556)"><path d="M71.756 11.049 H82.56 V3.309 Q92.074 2.341 97.718 -2.577 Q103.361 -7.495 103.361 -16.525 Q103.361 -24.91 98.545 -30.473 Q93.729 -36.036 82.184 -40.712 Q73.046 -44.582 69.096 -47.646 Q65.145 -50.71 65.145 -55.547 Q65.145 -59.74 68.37 -62.239 Q71.595 -64.739 77.078 -64.739 Q81.754 -64.739 85.382 -62.481 Q89.01 -60.224 91.429 -55.386 L100.943 -59.74 Q97.853 -66.544 93.512 -69.753 Q89.171 -72.962 82.883 -73.939 V-81.347 H72.079 V-73.93 Q63.371 -72.479 58.856 -67.307 Q54.341 -62.136 54.341 -54.965 Q54.341 -46.517 59.663 -41.438 Q64.984 -36.359 76.11 -32.005 Q85.301 -28.135 88.929 -24.74 Q92.558 -21.345 92.558 -16.525 Q92.558 -11.687 88.849 -8.866 Q85.14 -6.044 78.448 -6.044 Q72.24 -6.044 67.564 -9.591 Q62.888 -13.139 61.114 -19.589 L51.116 -16.202 Q54.341 -7.979 59.743 -3.302 Q65.145 1.374 71.756 3.043 V11.049 Z M77.422 33.301 Q63.21 33.301 50.713 27.98 Q38.216 22.659 28.864 13.306 Q19.511 3.954 14.19 -8.521 Q8.869 -20.995 8.869 -35.208 Q8.869 -49.581 14.19 -62.078 Q19.511 -74.575 28.838 -83.855 Q38.166 -93.136 50.652 -98.529 Q63.139 -103.922 77.364 -103.922 Q91.751 -103.922 104.267 -98.542 Q116.783 -93.161 126.051 -83.902 Q135.32 -74.643 140.706 -62.139 Q146.093 -49.636 146.093 -35.23 Q146.093 -20.995 140.699 -8.501 Q135.306 3.993 126.025 13.326 Q116.745 22.659 104.27 27.98 Q91.796 33.301 77.422 33.301 Z M77.4 18.144 Q99.653 18.144 115.213 2.604 Q130.774 -12.936 130.774 -35.23 Q130.774 -57.482 115.213 -73.043 Q99.653 -88.604 77.319 -88.604 Q55.148 -88.604 39.587 -73.043 Q24.026 -57.482 24.026 -35.149 Q24.026 -12.977 39.566 2.583 Q55.106 18.144 77.4 18.144 Z"/></g><g id="Semibold-L" transform="matrix(1 0 0 1 1970.27 1556)"><path d="M72.177 11.049 H82.139 V3.028 Q91.793 1.991 97.367 -2.927 Q102.941 -7.846 102.941 -16.525 Q102.941 -24.84 98.185 -30.228 Q93.43 -35.616 82.067 -40.292 Q72.836 -44.162 68.78 -47.226 Q64.724 -50.289 64.724 -55.267 Q64.724 -59.81 68.125 -62.485 Q71.525 -65.159 77.358 -65.159 Q82.104 -65.159 85.697 -62.902 Q89.29 -60.644 91.709 -55.947 L100.452 -60.02 Q97.514 -66.32 93.097 -69.536 Q88.681 -72.752 82.462 -73.585 V-81.347 H72.499 V-73.579 Q64.002 -72.268 59.382 -67.207 Q54.762 -62.146 54.762 -54.938 Q54.762 -46.728 59.873 -41.824 Q64.984 -36.92 75.479 -32.706 Q85.371 -28.556 89.175 -25.059 Q92.978 -21.563 92.978 -16.525 Q92.978 -11.547 89.024 -8.585 Q85.07 -5.623 78.483 -5.623 Q72.24 -5.623 67.459 -9.171 Q62.677 -12.718 60.833 -19.028 L51.607 -15.922 Q54.902 -8.049 60.094 -3.548 Q65.285 0.953 72.177 2.738 V11.049 Z M77.413 31.549 Q63.631 31.549 51.449 26.333 Q39.268 21.116 30.161 12.009 Q21.054 2.902 15.837 -9.267 Q10.621 -21.436 10.621 -35.217 Q10.621 -49.161 15.837 -61.342 Q21.054 -73.523 30.146 -82.555 Q39.239 -91.586 51.415 -96.843 Q63.59 -102.1 77.38 -102.1 Q91.331 -102.1 103.523 -96.85 Q115.715 -91.6 124.739 -82.581 Q133.764 -73.562 139.017 -61.377 Q144.27 -49.192 144.27 -35.23 Q144.27 -21.436 139.013 -9.256 Q133.756 2.924 124.725 12.02 Q115.693 21.116 103.525 26.333 Q91.356 31.549 77.413 31.549 Z M77.4 18.775 Q99.933 18.775 115.669 3.015 Q131.405 -12.744 131.405 -35.23 Q131.405 -57.763 115.669 -73.499 Q99.933 -89.235 77.354 -89.235 Q54.937 -89.235 39.166 -73.499 Q23.395 -57.763 23.395 -35.184 Q23.395 -12.767 39.155 3.004 Q54.914 18.775 77.4 18.775 Z"/></g><g id="Medium-L" transform="matrix(1 0 0 1 1674.31 1556)"><path d="M72.492 11.049 H81.824 V2.818 Q91.583 1.728 97.104 -3.19 Q102.625 -8.108 102.625 -16.525 Q102.625 -24.787 97.916 -30.044 Q93.206 -35.3 81.979 -39.976 Q72.678 -43.846 68.544 -46.91 Q64.409 -49.974 64.409 -55.057 Q64.409 -59.863 67.941 -62.669 Q71.472 -65.475 77.568 -65.475 Q82.367 -65.475 85.934 -63.217 Q89.501 -60.96 91.919 -56.368 L100.084 -60.231 Q97.259 -66.152 92.786 -69.373 Q88.312 -72.594 82.146 -73.319 V-81.347 H72.815 V-73.317 Q64.475 -72.111 59.776 -67.132 Q55.077 -62.153 55.077 -54.917 Q55.077 -46.886 60.031 -42.113 Q64.984 -37.34 75.006 -33.232 Q85.424 -28.871 89.359 -25.299 Q93.294 -21.726 93.294 -16.525 Q93.294 -11.442 89.155 -8.375 Q85.017 -5.308 78.509 -5.308 Q72.24 -5.308 67.38 -8.855 Q62.519 -12.403 60.623 -18.607 L51.975 -15.712 Q55.323 -8.101 60.357 -3.732 Q65.39 0.638 72.492 2.509 V11.049 Z M77.405 30.234 Q63.946 30.234 52.001 25.097 Q40.057 19.96 31.134 11.036 Q22.21 2.113 17.073 -9.826 Q11.936 -21.765 11.936 -35.225 Q11.936 -48.845 17.073 -60.79 Q22.21 -72.735 31.127 -81.579 Q40.045 -90.424 51.987 -95.578 Q63.929 -100.733 77.391 -100.733 Q91.015 -100.733 102.964 -95.581 Q114.914 -90.43 123.755 -81.59 Q132.597 -72.751 137.75 -60.805 Q142.903 -48.858 142.903 -35.23 Q142.903 -21.765 137.748 -9.821 Q132.594 2.123 123.749 11.041 Q114.905 19.96 102.965 25.097 Q91.026 30.234 77.405 30.234 Z M77.4 19.248 Q100.143 19.248 116.011 3.324 Q131.878 -12.6 131.878 -35.23 Q131.878 -57.973 116.011 -73.841 Q100.143 -89.708 77.381 -89.708 Q54.779 -89.708 38.851 -73.841 Q22.922 -57.973 22.922 -35.211 Q22.922 -12.609 38.846 3.319 Q54.77 19.248 77.4 19.248 Z"/></g><g id="Regular-L" transform="matrix(1 0 0 1 1378.56 1556)"><path d="M72.724 11.049 H81.593 V2.664 Q91.429 1.535 96.911 -3.383 Q102.394 -8.301 102.394 -16.525 Q102.394 -24.749 97.718 -29.909 Q93.041 -35.069 81.915 -39.745 Q72.562 -43.615 68.37 -46.679 Q64.177 -49.742 64.177 -54.902 Q64.177 -59.901 67.806 -62.804 Q71.434 -65.706 77.722 -65.706 Q82.56 -65.706 86.108 -63.449 Q89.655 -61.191 92.074 -56.676 L99.814 -60.385 Q97.073 -66.029 92.558 -69.254 Q88.043 -72.479 81.915 -73.124 V-81.347 H73.046 V-73.124 Q64.823 -71.995 60.066 -67.077 Q55.309 -62.159 55.309 -54.902 Q55.309 -47.001 60.146 -42.325 Q64.984 -37.649 74.659 -33.617 Q85.463 -29.102 89.494 -25.474 Q93.525 -21.846 93.525 -16.525 Q93.525 -11.365 89.252 -8.221 Q84.979 -5.076 78.529 -5.076 Q72.24 -5.076 67.322 -8.624 Q62.404 -12.171 60.469 -18.299 L52.245 -15.557 Q55.631 -8.14 60.549 -3.867 Q65.468 0.406 72.724 2.341 V11.049 Z M77.4 29.27 Q64.177 29.27 52.406 24.191 Q40.635 19.111 31.847 10.323 Q23.059 1.535 17.979 -10.236 Q12.9 -22.007 12.9 -35.23 Q12.9 -48.614 17.979 -60.385 Q23.059 -72.156 31.847 -80.864 Q40.635 -89.571 52.406 -94.651 Q64.177 -99.73 77.4 -99.73 Q90.784 -99.73 102.555 -94.651 Q114.326 -89.571 123.034 -80.864 Q131.741 -72.156 136.821 -60.385 Q141.9 -48.614 141.9 -35.23 Q141.9 -22.007 136.821 -10.236 Q131.741 1.535 123.034 10.323 Q114.326 19.111 102.555 24.191 Q90.784 29.27 77.4 29.27 Z M77.4 19.595 Q100.297 19.595 116.261 3.551 Q132.225 -12.494 132.225 -35.23 Q132.225 -58.127 116.261 -74.091 Q100.297 -90.055 77.4 -90.055 Q54.664 -90.055 38.619 -74.091 Q22.575 -58.127 22.575 -35.23 Q22.575 -12.494 38.619 3.551 Q54.664 19.595 77.4 19.595 Z"/></g><g id="Light-L" transform="matrix(1 0 0 1 1082.77 1556)"><path d="M73.654 9.498 H80.724 V1.423 Q89.506 0.729 95.361 -3.972 Q101.215 -8.673 101.215 -17.145 Q101.215 -24.997 96.632 -29.847 Q92.049 -34.697 80.799 -39.249 Q70.826 -43.181 67.13 -46.183 Q63.433 -49.184 63.433 -54.468 Q63.433 -59.591 67.34 -62.804 Q71.248 -66.016 77.722 -66.016 Q82.56 -66.016 86.108 -63.821 Q89.655 -61.625 92.136 -57.482 L98.201 -60.323 Q95.46 -65.471 91.069 -68.447 Q86.678 -71.424 81.047 -71.945 V-79.859 H73.977 V-71.945 Q65.629 -70.817 61.027 -65.992 Q56.425 -61.166 56.425 -54.468 Q56.425 -46.939 61.108 -42.511 Q65.79 -38.083 75.899 -34.052 Q86.641 -29.661 90.455 -26.157 Q94.269 -22.652 94.269 -17.145 Q94.269 -11.179 89.562 -7.972 Q84.855 -4.766 78.467 -4.766 Q72.364 -4.766 67.477 -8.19 Q62.59 -11.613 60.283 -17.617 L53.858 -15.309 Q57.182 -8.388 62.007 -4.518 Q66.832 -0.648 73.654 1.101 V9.498 Z M77.4 26.045 Q64.798 26.045 53.647 21.213 Q42.496 16.382 34.142 8.028 Q25.788 -0.326 20.957 -11.477 Q16.125 -22.628 16.125 -35.23 Q16.125 -47.932 20.957 -59.114 Q25.788 -70.296 34.142 -78.569 Q42.496 -86.842 53.647 -91.673 Q64.798 -96.505 77.4 -96.505 Q90.102 -96.505 101.284 -91.673 Q112.466 -86.842 120.739 -78.569 Q129.012 -70.296 133.843 -59.114 Q138.675 -47.932 138.675 -35.23 Q138.675 -22.628 133.843 -11.477 Q129.012 -0.326 120.739 8.028 Q112.466 16.382 101.284 21.213 Q90.102 26.045 77.4 26.045 Z M77.4 18.727 Q99.925 18.727 115.641 2.961 Q131.357 -12.804 131.357 -35.23 Q131.357 -57.755 115.641 -73.471 Q99.925 -89.187 77.4 -89.187 Q54.974 -89.187 39.209 -73.471 Q23.443 -57.755 23.443 -35.23 Q23.443 -12.804 39.209 2.961 Q54.974 18.727 77.4 18.727 Z"/></g><g id="Thin-L" transform="matrix(1 0 0 1 787.282 1556)"><path d="M74.584 7.948 H79.856 V0.183 Q87.584 -0.077 93.81 -4.562 Q100.037 -9.045 100.037 -17.765 Q100.037 -25.245 95.547 -29.785 Q91.057 -34.325 79.682 -38.753 Q69.089 -42.747 65.889 -45.686 Q62.689 -48.626 62.689 -54.034 Q62.689 -59.281 66.875 -62.804 Q71.062 -66.326 77.722 -66.326 Q82.56 -66.326 86.108 -64.193 Q89.655 -62.06 92.198 -58.289 L96.589 -60.261 Q93.847 -64.912 89.581 -67.641 Q85.314 -70.37 80.178 -70.767 V-78.371 H74.907 V-70.767 Q66.435 -69.638 61.988 -64.906 Q57.541 -60.174 57.541 -54.034 Q57.541 -46.877 62.069 -42.697 Q66.596 -38.517 77.14 -34.486 Q87.819 -30.219 91.416 -26.839 Q95.013 -23.459 95.013 -17.765 Q95.013 -10.993 89.872 -7.724 Q84.731 -4.456 78.405 -4.456 Q72.488 -4.456 67.632 -7.755 Q62.776 -11.055 60.097 -16.934 L55.47 -15.061 Q58.732 -8.636 63.464 -5.169 Q68.196 -1.702 74.584 -0.14 V7.948 Z M77.4 22.82 Q65.418 22.82 54.887 18.237 Q44.356 13.654 36.436 5.734 Q28.516 -2.186 23.933 -12.717 Q19.35 -23.248 19.35 -35.23 Q19.35 -47.249 23.933 -57.842 Q28.516 -68.435 36.436 -76.274 Q44.356 -84.114 54.887 -88.697 Q65.418 -93.28 77.4 -93.28 Q89.419 -93.28 100.012 -88.697 Q110.605 -84.114 118.444 -76.274 Q126.284 -68.435 130.867 -57.842 Q135.45 -47.249 135.45 -35.23 Q135.45 -23.248 130.867 -12.717 Q126.284 -2.186 118.444 5.734 Q110.605 13.654 100.012 18.237 Q89.419 22.82 77.4 22.82 Z M77.4 17.858 Q99.553 17.858 115.021 2.372 Q130.488 -13.114 130.488 -35.23 Q130.488 -57.383 115.021 -72.851 Q99.553 -88.318 77.4 -88.318 Q55.284 -88.318 39.798 -72.851 Q24.312 -57.383 24.312 -35.23 Q24.312 -13.114 39.798 2.372 Q55.284 17.858 77.4 17.858 Z"/></g><g id="Ultralight-L" transform="matrix(1 0 0 1 491.205 1556)"><path d="M75.142 7.018 H79.335 V-0.561 Q86.43 -0.561 92.88 -4.915 Q99.33 -9.269 99.33 -18.137 Q99.33 -25.394 94.896 -29.747 Q90.461 -34.101 79.013 -38.455 Q68.047 -42.486 65.145 -45.389 Q62.242 -48.291 62.242 -53.774 Q62.242 -59.095 66.596 -62.804 Q70.95 -66.512 77.722 -66.512 Q82.56 -66.512 86.108 -64.416 Q89.655 -62.32 92.235 -58.772 L95.621 -60.224 Q92.88 -64.577 88.688 -67.157 Q84.495 -69.737 79.657 -70.06 V-77.477 H75.465 V-70.06 Q66.919 -68.931 62.565 -64.255 Q58.211 -59.579 58.211 -53.774 Q58.211 -46.84 62.646 -42.809 Q67.08 -38.777 77.884 -34.746 Q88.526 -30.554 91.993 -27.248 Q95.46 -23.942 95.46 -18.137 Q95.46 -10.881 90.058 -7.576 Q84.656 -4.27 78.368 -4.27 Q72.562 -4.27 67.725 -7.495 Q62.888 -10.72 59.985 -16.525 L56.438 -14.912 Q59.663 -8.785 64.339 -5.56 Q69.015 -2.335 75.142 -0.884 V7.018 Z M77.4 20.885 Q65.79 20.885 55.631 16.451 Q45.473 12.016 37.813 4.357 Q30.154 -3.302 25.719 -13.461 Q21.285 -23.62 21.285 -35.23 Q21.285 -46.84 25.719 -57.079 Q30.154 -67.319 37.813 -74.897 Q45.473 -82.476 55.631 -86.911 Q65.79 -91.345 77.4 -91.345 Q89.01 -91.345 99.249 -86.911 Q109.489 -82.476 117.068 -74.897 Q124.646 -67.319 129.081 -57.079 Q133.515 -46.84 133.515 -35.23 Q133.515 -23.62 129.081 -13.461 Q124.646 -3.302 117.068 4.357 Q109.489 12.016 99.249 16.451 Q89.01 20.885 77.4 20.885 Z M77.4 17.338 Q99.33 17.338 114.649 2.019 Q129.968 -13.3 129.968 -35.23 Q129.968 -57.16 114.649 -72.479 Q99.33 -87.797 77.4 -87.797 Q55.47 -87.797 40.151 -72.479 Q24.832 -57.16 24.832 -35.23 Q24.832 -13.3 40.151 2.019 Q55.47 17.338 77.4 17.338 Z"/></g><g id="Bold-M" transform="matrix(1 0 0 1 2281.8 1126)"><path d="M54.5 -0.23 H65.25 V-5.73 Q71.25 -6.855 75.875 -10.605 Q80.5 -14.355 80.5 -22.48 Q80.5 -28.105 77.375 -32.792 Q74.25 -37.48 64.875 -40.73 Q57.5 -43.23 54.875 -45.105 Q52.25 -46.98 52.25 -49.855 Q52.25 -52.355 54.25 -53.792 Q56.25 -55.23 59.5 -55.23 Q63.25 -55.23 65.688 -53.292 Q68.125 -51.355 69.125 -48.105 L78.875 -52.105 Q77.25 -57.48 73.75 -60.792 Q70.25 -64.105 65.5 -64.73 V-70.23 H54.75 V-64.73 Q48 -63.105 44.75 -58.73 Q41.5 -54.355 41.5 -49.23 Q41.5 -42.855 45.375 -38.855 Q49.25 -34.855 58.25 -31.73 Q64.5 -29.605 67.125 -27.605 Q69.75 -25.605 69.75 -22.48 Q69.75 -18.855 67.438 -17.167 Q65.125 -15.48 60.75 -15.48 Q56.625 -15.48 53.688 -17.98 Q50.75 -20.48 49.375 -26.105 L39.375 -22.105 Q40.875 -15.23 45.062 -11.167 Q49.25 -7.105 54.5 -5.98 V-0.23 Z M60 19.02 Q48.625 19.02 38.75 14.77 Q28.875 10.52 21.562 3.208 Q14.25 -4.105 10 -13.98 Q5.75 -23.855 5.75 -35.23 Q5.75 -46.605 10 -56.48 Q14.25 -66.355 21.562 -73.667 Q28.875 -80.98 38.75 -85.23 Q48.625 -89.48 60 -89.48 Q71.375 -89.48 81.25 -85.23 Q91.125 -80.98 98.438 -73.667 Q105.75 -66.355 110 -56.48 Q114.25 -46.605 114.25 -35.23 Q114.25 -23.855 110 -13.98 Q105.75 -4.105 98.438 3.208 Q91.125 10.52 81.25 14.77 Q71.375 19.02 60 19.02 Z M60 3.27 Q76.25 3.27 87.375 -7.855 Q98.5 -18.98 98.5 -35.23 Q98.5 -51.48 87.375 -62.605 Q76.25 -73.73 60 -73.73 Q43.75 -73.73 32.625 -62.605 Q21.5 -51.48 21.5 -35.23 Q21.5 -18.98 32.625 -7.855 Q43.75 3.27 60 3.27 Z"/></g><g id="Semibold-M" transform="matrix(1 0 0 1 1985.97 1126)"><path d="M54.935 -0.23 H64.815 V-6.056 Q70.924 -7.181 75.495 -10.931 Q80.065 -14.681 80.065 -22.48 Q80.065 -27.942 76.995 -32.494 Q73.924 -37.045 64.712 -40.295 Q57.283 -42.795 54.549 -44.67 Q51.815 -46.545 51.815 -49.583 Q51.815 -52.409 53.951 -54.037 Q56.087 -55.665 59.826 -55.665 Q63.685 -55.665 66.041 -53.727 Q68.397 -51.79 69.397 -48.703 L78.386 -52.377 Q76.87 -57.317 73.288 -60.602 Q69.707 -63.888 65.065 -64.404 V-70.23 H55.185 V-64.404 Q48.652 -62.888 45.294 -58.621 Q41.935 -54.355 41.935 -49.23 Q41.935 -43.072 45.62 -39.235 Q49.304 -35.398 57.598 -32.491 Q64.554 -30.04 67.37 -27.931 Q70.185 -25.822 70.185 -22.48 Q70.185 -18.638 67.6 -16.841 Q65.016 -15.045 60.75 -15.045 Q56.625 -15.045 53.579 -17.572 Q50.533 -20.1 49.103 -25.507 L39.864 -21.833 Q41.473 -15.339 45.443 -11.439 Q49.413 -7.54 54.935 -6.306 V-0.23 Z M60 17.172 Q49.06 17.172 39.511 13.058 Q29.962 8.944 22.894 1.876 Q15.826 -5.192 11.712 -14.741 Q7.598 -24.29 7.598 -35.23 Q7.598 -46.17 11.712 -55.719 Q15.826 -65.268 22.894 -72.336 Q29.962 -79.404 39.511 -83.518 Q49.06 -87.632 60 -87.632 Q70.94 -87.632 80.489 -83.518 Q90.038 -79.404 97.106 -72.336 Q104.174 -65.268 108.288 -55.719 Q112.402 -46.17 112.402 -35.23 Q112.402 -24.29 108.288 -14.741 Q104.174 -5.192 97.106 1.876 Q90.038 8.944 80.489 13.058 Q70.94 17.172 60 17.172 Z M60 3.922 Q76.467 3.922 87.81 -7.42 Q99.152 -18.763 99.152 -35.23 Q99.152 -51.697 87.81 -63.04 Q76.467 -74.382 60 -74.382 Q43.533 -74.382 32.19 -63.04 Q20.848 -51.697 20.848 -35.23 Q20.848 -18.763 32.19 -7.42 Q43.533 3.922 60 3.922 Z"/></g><g id="Medium-M" transform="matrix(1 0 0 1 1689.91 1126)"><path d="M55.261 -0.23 H64.489 V-6.301 Q70.679 -7.426 75.209 -11.176 Q79.739 -14.926 79.739 -22.48 Q79.739 -27.82 76.709 -32.269 Q73.679 -36.719 64.59 -39.969 Q57.12 -42.469 54.304 -44.344 Q51.489 -46.219 51.489 -49.379 Q51.489 -52.45 53.727 -54.22 Q55.965 -55.991 60.071 -55.991 Q64.011 -55.991 66.306 -54.053 Q68.6 -52.116 69.6 -49.151 L78.019 -52.58 Q76.584 -57.195 72.942 -60.46 Q69.299 -63.725 64.739 -64.159 V-70.23 H55.511 V-64.159 Q49.141 -62.725 45.701 -58.54 Q42.261 -54.355 42.261 -49.23 Q42.261 -43.235 45.803 -39.521 Q49.345 -35.806 57.109 -33.061 Q64.595 -30.366 67.553 -28.176 Q70.511 -25.985 70.511 -22.48 Q70.511 -18.475 67.723 -16.597 Q64.935 -14.719 60.75 -14.719 Q56.625 -14.719 53.497 -17.267 Q50.37 -19.814 48.9 -25.059 L40.231 -21.629 Q41.921 -15.42 45.728 -11.643 Q49.535 -7.866 55.261 -6.551 V-0.23 Z M60 15.786 Q49.386 15.786 40.081 11.774 Q30.777 7.762 23.893 0.877 Q17.008 -6.007 12.996 -15.311 Q8.984 -24.616 8.984 -35.23 Q8.984 -45.844 12.996 -55.148 Q17.008 -64.453 23.893 -71.337 Q30.777 -78.222 40.081 -82.234 Q49.386 -86.246 60 -86.246 Q70.614 -86.246 79.918 -82.234 Q89.223 -78.222 96.107 -71.337 Q102.992 -64.453 107.004 -55.148 Q111.016 -45.844 111.016 -35.23 Q111.016 -24.616 107.004 -15.311 Q102.992 -6.007 96.107 0.877 Q89.223 7.762 79.918 11.774 Q70.614 15.786 60 15.786 Z M60 4.411 Q76.63 4.411 88.136 -7.094 Q99.641 -18.6 99.641 -35.23 Q99.641 -51.86 88.136 -63.366 Q76.63 -74.871 60 -74.871 Q43.37 -74.871 31.864 -63.366 Q20.359 -51.86 20.359 -35.23 Q20.359 -18.6 31.864 -7.094 Q43.37 4.411 60 4.411 Z"/></g><g id="Regular-M" transform="matrix(1 0 0 1 1394.06 1126)"><path d="M55.5 -0.23 H64.25 V-6.48 Q70.5 -7.605 75 -11.355 Q79.5 -15.105 79.5 -22.48 Q79.5 -27.73 76.5 -32.105 Q73.5 -36.48 64.5 -39.73 Q57 -42.23 54.125 -44.105 Q51.25 -45.98 51.25 -49.23 Q51.25 -52.48 53.562 -54.355 Q55.875 -56.23 60.25 -56.23 Q64.25 -56.23 66.5 -54.292 Q68.75 -52.355 69.75 -49.48 L77.75 -52.73 Q76.375 -57.105 72.688 -60.355 Q69 -63.605 64.5 -63.98 V-70.23 H55.75 V-63.98 Q49.5 -62.605 46 -58.48 Q42.5 -54.355 42.5 -49.23 Q42.5 -43.355 45.938 -39.73 Q49.375 -36.105 56.75 -33.48 Q64.625 -30.605 67.688 -28.355 Q70.75 -26.105 70.75 -22.48 Q70.75 -18.355 67.812 -16.417 Q64.875 -14.48 60.75 -14.48 Q56.625 -14.48 53.438 -17.042 Q50.25 -19.605 48.75 -24.73 L40.5 -21.48 Q42.25 -15.48 45.938 -11.792 Q49.625 -8.105 55.5 -6.73 V-0.23 Z M60 14.77 Q49.625 14.77 40.5 10.833 Q31.375 6.895 24.625 0.145 Q17.875 -6.605 13.938 -15.73 Q10 -24.855 10 -35.23 Q10 -45.605 13.938 -54.73 Q17.875 -63.855 24.625 -70.605 Q31.375 -77.355 40.5 -81.292 Q49.625 -85.23 60 -85.23 Q70.375 -85.23 79.5 -81.292 Q88.625 -77.355 95.375 -70.605 Q102.125 -63.855 106.062 -54.73 Q110 -45.605 110 -35.23 Q110 -24.855 106.062 -15.73 Q102.125 -6.605 95.375 0.145 Q88.625 6.895 79.5 10.833 Q70.375 14.77 60 14.77 Z M60 4.77 Q76.75 4.77 88.375 -6.855 Q100 -18.48 100 -35.23 Q100 -51.98 88.375 -63.605 Q76.75 -75.23 60 -75.23 Q43.25 -75.23 31.625 -63.605 Q20 -51.98 20 -35.23 Q20 -18.48 31.625 -6.855 Q43.25 4.77 60 4.77 Z"/></g><g id="Light-M" transform="matrix(1 0 0 1 1098.18 1126)"><path d="M56.462 -1.192 H63.288 V-7.249 Q69.106 -8.038 73.822 -11.619 Q78.538 -15.201 78.538 -22.48 Q78.538 -27.73 75.442 -31.768 Q72.346 -35.807 63.346 -39.057 Q55.461 -41.749 52.875 -43.72 Q50.288 -45.691 50.288 -49.23 Q50.288 -52.768 52.938 -54.98 Q55.587 -57.192 60.25 -57.192 Q64.154 -57.192 66.548 -55.35 Q68.942 -53.509 70.231 -50.73 L76.404 -53.211 Q74.836 -57.201 71.293 -60.042 Q67.75 -62.884 63.538 -63.211 V-69.268 H56.712 V-63.211 Q50.317 -61.98 46.889 -58.023 Q43.462 -54.066 43.462 -49.23 Q43.462 -43.595 46.875 -40.163 Q50.288 -36.73 58 -33.961 Q65.971 -31.038 68.889 -28.716 Q71.808 -26.393 71.808 -22.48 Q71.808 -17.778 68.413 -15.648 Q65.019 -13.518 60.75 -13.518 Q56.529 -13.518 53.197 -16.057 Q49.865 -18.595 48.077 -23.48 L41.75 -20.903 Q43.692 -15.336 47.332 -12.057 Q50.971 -8.778 56.462 -7.499 V-1.192 Z M60 12.27 Q50.154 12.27 41.486 8.525 Q32.817 4.78 26.404 -1.634 Q19.991 -8.047 16.245 -16.716 Q12.5 -25.384 12.5 -35.23 Q12.5 -45.076 16.245 -53.744 Q19.991 -62.413 26.404 -68.826 Q32.817 -75.239 41.486 -78.985 Q50.154 -82.73 60 -82.73 Q69.846 -82.73 78.514 -78.985 Q87.183 -75.239 93.596 -68.826 Q100.01 -62.413 103.755 -53.744 Q107.5 -45.076 107.5 -35.23 Q107.5 -25.384 103.755 -16.716 Q100.01 -8.047 93.596 -1.634 Q87.183 4.78 78.514 8.525 Q69.846 12.27 60 12.27 Z M60 4.77 Q76.75 4.77 88.375 -6.855 Q100 -18.48 100 -35.23 Q100 -51.98 88.375 -63.605 Q76.75 -75.23 60 -75.23 Q43.25 -75.23 31.625 -63.605 Q20 -51.98 20 -35.23 Q20 -18.48 31.625 -6.855 Q43.25 4.77 60 4.77 Z"/></g><g id="Thin-M" transform="matrix(1 0 0 1 802.565 1126)"><path d="M57.423 -2.153 H62.327 V-8.018 Q67.712 -8.47 72.644 -11.884 Q77.577 -15.297 77.577 -22.48 Q77.577 -27.73 74.385 -31.432 Q71.192 -35.134 62.192 -38.384 Q53.923 -41.268 51.625 -43.336 Q49.327 -45.403 49.327 -49.23 Q49.327 -53.057 52.312 -55.605 Q55.298 -58.153 60.25 -58.153 Q64.058 -58.153 66.596 -56.408 Q69.135 -54.663 70.712 -51.98 L75.058 -53.691 Q73.298 -57.297 69.899 -59.73 Q66.5 -62.163 62.577 -62.441 V-68.307 H57.673 V-62.441 Q51.135 -61.355 47.779 -57.566 Q44.423 -53.778 44.423 -49.23 Q44.423 -43.836 47.812 -40.595 Q51.202 -37.355 59.25 -34.441 Q67.317 -31.47 70.091 -29.076 Q72.865 -26.682 72.865 -22.48 Q72.865 -17.201 69.014 -14.879 Q65.163 -12.557 60.75 -12.557 Q56.433 -12.557 52.957 -15.071 Q49.481 -17.586 47.404 -22.23 L43 -20.326 Q45.135 -15.191 48.726 -12.321 Q52.317 -9.451 57.423 -8.268 V-2.153 Z M60 9.77 Q50.683 9.77 42.471 6.217 Q34.26 2.664 28.183 -3.413 Q22.106 -9.49 18.553 -17.701 Q15 -25.913 15 -35.23 Q15 -44.547 18.553 -52.759 Q22.106 -60.97 28.183 -67.047 Q34.26 -73.124 42.471 -76.677 Q50.683 -80.23 60 -80.23 Q69.317 -80.23 77.529 -76.677 Q85.74 -73.124 91.817 -67.047 Q97.894 -60.97 101.447 -52.759 Q105 -44.547 105 -35.23 Q105 -25.913 101.447 -17.701 Q97.894 -9.49 91.817 -3.413 Q85.74 2.664 77.529 6.217 Q69.317 9.77 60 9.77 Z M60 4.77 Q76.75 4.77 88.375 -6.855 Q100 -18.48 100 -35.23 Q100 -51.98 88.375 -63.605 Q76.75 -75.23 60 -75.23 Q43.25 -75.23 31.625 -63.605 Q20 -51.98 20 -35.23 Q20 -18.48 31.625 -6.855 Q43.25 4.77 60 4.77 Z"/></g><g id="Ultralight-M" transform="matrix(1 0 0 1 506.415 1126)"><path d="M58 -2.73 H61.75 V-8.48 Q66.875 -8.73 71.938 -12.042 Q77 -15.355 77 -22.48 Q77 -27.73 73.75 -31.23 Q70.5 -34.73 61.5 -37.98 Q53 -40.98 50.875 -43.105 Q48.75 -45.23 48.75 -49.23 Q48.75 -53.23 51.938 -55.98 Q55.125 -58.73 60.25 -58.73 Q64 -58.73 66.625 -57.042 Q69.25 -55.355 71 -52.73 L74.25 -53.98 Q72.375 -57.355 69.062 -59.542 Q65.75 -61.73 62 -61.98 V-67.73 H58.25 V-61.98 Q51.625 -60.98 48.312 -57.292 Q45 -53.605 45 -49.23 Q45 -43.98 48.375 -40.855 Q51.75 -37.73 60 -34.73 Q68.125 -31.73 70.812 -29.292 Q73.5 -26.855 73.5 -22.48 Q73.5 -16.855 69.375 -14.417 Q65.25 -11.98 60.75 -11.98 Q56.375 -11.98 52.812 -14.48 Q49.25 -16.98 47 -21.48 L43.75 -19.98 Q46 -15.105 49.562 -12.48 Q53.125 -9.855 58 -8.73 V-2.73 Z M60 8.27 Q51 8.27 43.062 4.833 Q35.125 1.395 29.25 -4.48 Q23.375 -10.355 19.938 -18.292 Q16.5 -26.23 16.5 -35.23 Q16.5 -44.23 19.938 -52.167 Q23.375 -60.105 29.25 -65.98 Q35.125 -71.855 43.062 -75.292 Q51 -78.73 60 -78.73 Q69 -78.73 76.938 -75.292 Q84.875 -71.855 90.75 -65.98 Q96.625 -60.105 100.062 -52.167 Q103.5 -44.23 103.5 -35.23 Q103.5 -26.23 100.062 -18.292 Q96.625 -10.355 90.75 -4.48 Q84.875 1.395 76.938 4.833 Q69 8.27 60 8.27 Z M60 4.77 Q76.75 4.77 88.375 -6.855 Q100 -18.48 100 -35.23 Q100 -51.98 88.375 -63.605 Q76.75 -75.23 60 -75.23 Q43.25 -75.23 31.625 -63.605 Q20 -51.98 20 -35.23 Q20 -18.48 31.625 -6.855 Q43.25 4.77 60 4.77 Z"/></g><g id="Bold-S" transform="matrix(1 0 0 1 2294.23 696)"><path d="M43.198 -9.193 H51.384 V-13.237 Q56.019 -14.026 59.274 -17.379 Q62.528 -20.732 62.528 -25.762 Q62.528 -30.496 59.717 -33.899 Q56.907 -37.301 50.989 -39.372 Q45.072 -41.542 43.346 -43.071 Q41.62 -44.599 41.62 -46.769 Q41.62 -48.15 43.099 -49.087 Q44.579 -50.024 46.452 -50.024 Q49.017 -50.024 51.236 -48.692 Q53.455 -47.361 54.145 -44.797 L61.345 -47.854 Q59.964 -51.898 57.498 -54.166 Q55.033 -56.434 51.384 -57.223 V-61.267 H43.296 V-57.125 Q38.464 -55.941 35.998 -52.933 Q33.532 -49.925 33.532 -46.177 Q33.532 -41.345 36.886 -37.942 Q40.239 -34.54 48.03 -31.877 Q51.186 -30.89 52.863 -29.312 Q54.54 -27.734 54.54 -25.762 Q54.54 -23.592 52.962 -22.064 Q51.384 -20.535 48.129 -20.535 Q44.874 -20.535 42.557 -22.655 Q40.239 -24.776 39.45 -28.622 L31.955 -25.466 Q32.941 -20.633 36.294 -17.428 Q39.647 -14.223 43.198 -13.335 V-9.193 Z M47.34 5.995 Q38.76 5.995 31.264 2.79 Q23.769 -0.415 18.147 -6.037 Q12.525 -11.659 9.32 -19.154 Q6.115 -26.65 6.115 -35.23 Q6.115 -43.909 9.32 -51.355 Q12.525 -58.801 18.147 -64.423 Q23.769 -70.045 31.264 -73.25 Q38.76 -76.455 47.34 -76.455 Q56.019 -76.455 63.465 -73.25 Q70.911 -70.045 76.533 -64.423 Q82.155 -58.801 85.36 -51.355 Q88.565 -43.909 88.565 -35.23 Q88.565 -26.65 85.36 -19.154 Q82.155 -11.659 76.533 -6.037 Q70.911 -0.415 63.465 2.79 Q56.019 5.995 47.34 5.995 Z M47.34 -5.642 Q59.767 -5.642 68.347 -14.223 Q76.928 -22.803 76.928 -35.23 Q76.928 -47.657 68.347 -56.237 Q59.767 -64.817 47.34 -64.817 Q34.913 -64.817 26.333 -56.237 Q17.753 -47.657 17.753 -35.23 Q17.753 -22.803 26.333 -14.223 Q34.913 -5.642 47.34 -5.642 Z"/></g><g id="Semibold-S" transform="matrix(1 0 0 1 1998.1 696)"><path d="M43.541 -9.193 H51.041 V-13.494 Q55.762 -14.283 58.974 -17.636 Q62.185 -20.989 62.185 -25.762 Q62.185 -30.367 59.417 -33.663 Q56.649 -36.958 50.861 -39.029 Q44.9 -41.199 43.088 -42.728 Q41.277 -44.256 41.277 -46.555 Q41.277 -48.193 42.863 -49.28 Q44.45 -50.367 46.71 -50.367 Q49.36 -50.367 51.514 -49.035 Q53.669 -47.704 54.36 -45.268 L60.959 -48.068 Q59.664 -51.769 57.134 -54.016 Q54.604 -56.263 51.041 -56.966 V-61.267 H43.639 V-56.867 Q38.978 -55.77 36.427 -52.847 Q33.876 -49.925 33.876 -46.177 Q33.876 -41.516 37.079 -38.242 Q40.282 -34.968 47.516 -32.477 Q51.229 -31.234 53.056 -29.57 Q54.883 -27.906 54.883 -25.762 Q54.883 -23.421 53.09 -21.806 Q51.298 -20.192 48.129 -20.192 Q44.874 -20.192 42.471 -22.334 Q40.067 -24.476 39.236 -28.151 L32.34 -25.252 Q33.412 -20.719 36.594 -17.643 Q39.776 -14.566 43.541 -13.593 V-9.193 Z M47.34 4.537 Q39.103 4.537 31.864 1.439 Q24.626 -1.659 19.197 -7.087 Q13.769 -12.516 10.671 -19.754 Q7.573 -26.993 7.573 -35.23 Q7.573 -43.566 10.671 -50.755 Q13.769 -57.944 19.197 -63.373 Q24.626 -68.801 31.864 -71.899 Q39.103 -74.997 47.34 -74.997 Q55.676 -74.997 62.865 -71.899 Q70.054 -68.801 75.483 -63.373 Q80.911 -57.944 84.009 -50.755 Q87.107 -43.566 87.107 -35.23 Q87.107 -26.993 84.009 -19.754 Q80.911 -12.516 75.483 -7.087 Q70.054 -1.659 62.865 1.439 Q55.676 4.537 47.34 4.537 Z M47.34 -5.128 Q59.938 -5.128 68.69 -13.88 Q77.442 -22.632 77.442 -35.23 Q77.442 -47.828 68.69 -56.58 Q59.938 -65.332 47.34 -65.332 Q34.742 -65.332 25.99 -56.58 Q17.238 -47.828 17.238 -35.23 Q17.238 -22.632 25.99 -13.88 Q34.742 -5.128 47.34 -5.128 Z"/></g><g id="Medium-S" transform="matrix(1 0 0 1 1701.85 696)"><path d="M43.798 -9.193 H50.783 V-13.687 Q55.569 -14.476 58.748 -17.829 Q61.928 -21.182 61.928 -25.762 Q61.928 -30.271 59.192 -33.486 Q56.456 -36.701 50.764 -38.772 Q44.772 -40.942 42.895 -42.47 Q41.019 -43.999 41.019 -46.394 Q41.019 -48.225 42.686 -49.425 Q44.353 -50.624 46.903 -50.624 Q49.617 -50.624 51.723 -49.293 Q53.83 -47.961 54.52 -45.622 L60.669 -48.229 Q59.439 -51.672 56.861 -53.903 Q54.282 -56.134 50.783 -56.773 V-61.267 H43.897 V-56.675 Q39.364 -55.641 36.749 -52.783 Q34.133 -49.925 34.133 -46.177 Q34.133 -41.645 37.223 -38.467 Q40.314 -35.29 47.13 -32.927 Q51.261 -31.491 53.201 -29.763 Q55.14 -28.035 55.14 -25.762 Q55.14 -23.292 53.187 -21.613 Q51.234 -19.935 48.129 -19.935 Q44.874 -19.935 42.407 -22.093 Q39.939 -24.25 39.075 -27.797 L32.63 -25.091 Q33.766 -20.784 36.819 -17.803 Q39.872 -14.823 43.798 -13.785 V-9.193 Z M47.34 3.444 Q39.36 3.444 32.315 0.426 Q25.269 -2.592 19.985 -7.875 Q14.702 -13.159 11.684 -20.205 Q8.666 -27.25 8.666 -35.23 Q8.666 -43.309 11.684 -50.305 Q14.702 -57.301 19.985 -62.585 Q25.269 -67.868 32.315 -70.886 Q39.36 -73.904 47.34 -73.904 Q55.419 -73.904 62.415 -70.886 Q69.411 -67.868 74.695 -62.585 Q79.978 -57.301 82.996 -50.305 Q86.014 -43.309 86.014 -35.23 Q86.014 -27.25 82.996 -20.205 Q79.978 -13.159 74.695 -7.875 Q69.411 -2.592 62.415 0.426 Q55.419 3.444 47.34 3.444 Z M47.34 -4.742 Q60.067 -4.742 68.947 -13.623 Q77.828 -22.503 77.828 -35.23 Q77.828 -47.957 68.947 -56.837 Q60.067 -65.718 47.34 -65.718 Q34.613 -65.718 25.733 -56.837 Q16.852 -47.957 16.852 -35.23 Q16.852 -22.503 25.733 -13.623 Q34.613 -4.742 47.34 -4.742 Z"/></g><g id="Regular-S" transform="matrix(1 0 0 1 1405.73 696)"><path d="M43.987 -9.193 H50.595 V-13.828 Q55.427 -14.617 58.583 -17.971 Q61.739 -21.324 61.739 -25.762 Q61.739 -30.2 59.027 -33.356 Q56.315 -36.512 50.693 -38.583 Q44.677 -40.753 42.754 -42.282 Q40.831 -43.81 40.831 -46.276 Q40.831 -48.248 42.557 -49.531 Q44.283 -50.813 47.044 -50.813 Q49.806 -50.813 51.877 -49.481 Q53.948 -48.15 54.638 -45.881 L60.457 -48.347 Q59.274 -51.602 56.66 -53.821 Q54.047 -56.04 50.595 -56.632 V-61.267 H44.085 V-56.533 Q39.647 -55.547 36.984 -52.736 Q34.322 -49.925 34.322 -46.177 Q34.322 -41.739 37.33 -38.633 Q40.338 -35.526 46.847 -33.257 Q51.285 -31.679 53.307 -29.904 Q55.329 -28.129 55.329 -25.762 Q55.329 -23.198 53.258 -21.472 Q51.186 -19.746 48.129 -19.746 Q44.874 -19.746 42.359 -21.916 Q39.845 -24.085 38.957 -27.537 L32.842 -24.973 Q34.026 -20.831 36.984 -17.921 Q39.943 -15.012 43.987 -13.927 V-9.193 Z M47.34 2.642 Q39.549 2.642 32.645 -0.317 Q25.741 -3.275 20.563 -8.453 Q15.386 -13.631 12.427 -20.535 Q9.468 -27.439 9.468 -35.23 Q9.468 -43.12 12.427 -49.974 Q15.386 -56.829 20.563 -62.007 Q25.741 -67.184 32.645 -70.143 Q39.549 -73.102 47.34 -73.102 Q55.23 -73.102 62.084 -70.143 Q68.939 -67.184 74.117 -62.007 Q79.294 -56.829 82.253 -49.974 Q85.212 -43.12 85.212 -35.23 Q85.212 -27.439 82.253 -20.535 Q79.294 -13.631 74.117 -8.453 Q68.939 -3.275 62.084 -0.317 Q55.23 2.642 47.34 2.642 Z M47.34 -4.459 Q60.161 -4.459 69.136 -13.434 Q78.111 -22.409 78.111 -35.23 Q78.111 -48.051 69.136 -57.026 Q60.161 -66.001 47.34 -66.001 Q34.519 -66.001 25.544 -57.026 Q16.569 -48.051 16.569 -35.23 Q16.569 -22.409 25.544 -13.434 Q34.519 -4.459 47.34 -4.459 Z"/></g><g id="Light-S" transform="matrix(1 0 0 1 1109.75 696)"><path d="M44.745 -9.952 H49.836 V-14.435 Q54.327 -14.959 57.654 -18.179 Q60.981 -21.4 60.981 -25.762 Q60.981 -30.2 58.192 -33.091 Q55.404 -35.981 49.783 -38.052 Q43.463 -40.374 41.768 -41.978 Q40.072 -43.583 40.072 -46.276 Q40.072 -48.476 42.064 -50.024 Q44.055 -51.571 47.044 -51.571 Q49.73 -51.571 51.915 -50.316 Q54.1 -49.06 55.018 -46.868 L59.395 -48.726 Q58.06 -51.678 55.56 -53.574 Q53.06 -55.471 49.836 -56.025 V-60.508 H44.844 V-55.926 Q40.292 -55.054 37.686 -52.376 Q35.08 -49.697 35.08 -46.177 Q35.08 -41.929 38.069 -38.974 Q41.058 -36.019 47.833 -33.637 Q52.347 -32.021 54.255 -30.189 Q56.163 -28.357 56.163 -25.762 Q56.163 -22.742 53.732 -20.865 Q51.3 -18.987 48.129 -18.987 Q44.799 -18.987 42.17 -21.138 Q39.541 -23.289 38.426 -26.551 L33.828 -24.518 Q35.164 -20.717 38.085 -18.13 Q41.005 -15.543 44.745 -14.534 V-9.952 Z M47.34 0.669 Q39.966 0.669 33.423 -2.138 Q26.879 -4.945 21.967 -9.857 Q17.055 -14.769 14.248 -21.313 Q11.441 -27.856 11.441 -35.23 Q11.441 -42.703 14.248 -49.197 Q17.055 -55.691 21.967 -60.603 Q26.879 -65.515 33.423 -68.322 Q39.966 -71.129 47.34 -71.129 Q54.813 -71.129 61.307 -68.322 Q67.801 -65.515 72.713 -60.603 Q77.625 -55.691 80.432 -49.197 Q83.239 -42.703 83.239 -35.23 Q83.239 -27.856 80.432 -21.313 Q77.625 -14.769 72.713 -9.857 Q67.801 -4.945 61.307 -2.138 Q54.813 0.669 47.34 0.669 Z M47.34 -4.459 Q60.161 -4.459 69.136 -13.434 Q78.111 -22.409 78.111 -35.23 Q78.111 -48.051 69.136 -57.026 Q60.161 -66.001 47.34 -66.001 Q34.519 -66.001 25.544 -57.026 Q16.569 -48.051 16.569 -35.23 Q16.569 -22.409 25.544 -13.434 Q34.519 -4.459 47.34 -4.459 Z"/></g><g id="Thin-S" transform="matrix(1 0 0 1 814.015 696)"><path d="M45.504 -10.71 H49.077 V-15.042 Q53.227 -15.3 56.725 -18.388 Q60.222 -21.476 60.222 -25.762 Q60.222 -30.2 57.358 -32.825 Q54.494 -35.45 48.873 -37.521 Q42.249 -39.994 40.781 -41.675 Q39.313 -43.355 39.313 -46.276 Q39.313 -48.704 41.57 -50.517 Q43.827 -52.33 47.044 -52.33 Q49.654 -52.33 51.953 -51.15 Q54.251 -49.971 55.397 -47.854 L58.333 -49.106 Q56.846 -51.753 54.46 -53.328 Q52.074 -54.902 49.077 -55.418 V-59.75 H45.603 V-55.319 Q40.937 -54.56 38.388 -52.015 Q35.839 -49.47 35.839 -46.177 Q35.839 -42.119 38.809 -39.315 Q41.779 -36.512 48.819 -34.016 Q53.409 -32.362 55.203 -30.473 Q56.998 -28.584 56.998 -25.762 Q56.998 -22.287 54.206 -20.258 Q51.414 -18.229 48.129 -18.229 Q44.723 -18.229 41.98 -20.36 Q39.238 -22.492 37.895 -25.565 L34.815 -24.063 Q36.302 -20.603 39.185 -18.339 Q42.067 -16.074 45.504 -15.141 V-10.71 Z M47.34 -1.303 Q40.383 -1.303 34.2 -3.958 Q28.017 -6.614 23.37 -11.26 Q18.724 -15.907 16.068 -22.09 Q13.413 -28.273 13.413 -35.23 Q13.413 -42.286 16.068 -48.419 Q18.724 -54.553 23.37 -59.2 Q28.017 -63.846 34.2 -66.502 Q40.383 -69.157 47.34 -69.157 Q54.396 -69.157 60.529 -66.502 Q66.663 -63.846 71.31 -59.2 Q75.956 -54.553 78.612 -48.419 Q81.267 -42.286 81.267 -35.23 Q81.267 -28.273 78.612 -22.09 Q75.956 -15.907 71.31 -11.26 Q66.663 -6.614 60.529 -3.958 Q54.396 -1.303 47.34 -1.303 Z M47.34 -4.459 Q60.161 -4.459 69.136 -13.434 Q78.111 -22.409 78.111 -35.23 Q78.111 -48.051 69.136 -57.026 Q60.161 -66.001 47.34 -66.001 Q34.519 -66.001 25.544 -57.026 Q16.569 -48.051 16.569 -35.23 Q16.569 -22.409 25.544 -13.434 Q34.519 -4.459 47.34 -4.459 Z"/></g><g id="Ultralight-S" transform="matrix(1 0 0 1 517.792 696)"><path d="M45.959 -11.165 H48.622 V-15.406 Q52.567 -15.505 56.167 -18.513 Q59.767 -21.521 59.767 -25.762 Q59.767 -30.2 56.857 -32.666 Q53.948 -35.131 48.326 -37.202 Q41.521 -39.767 40.19 -41.493 Q38.858 -43.219 38.858 -46.276 Q38.858 -48.84 41.275 -50.813 Q43.691 -52.785 47.044 -52.785 Q49.608 -52.785 51.975 -51.651 Q54.342 -50.517 55.625 -48.446 L57.696 -49.333 Q56.118 -51.799 53.8 -53.18 Q51.482 -54.56 48.622 -55.054 V-59.294 H46.058 V-54.955 Q41.324 -54.265 38.809 -51.799 Q36.294 -49.333 36.294 -46.177 Q36.294 -42.232 39.253 -39.52 Q42.212 -36.808 49.411 -34.244 Q54.047 -32.567 55.772 -30.644 Q57.498 -28.721 57.498 -25.762 Q57.498 -22.014 54.49 -19.894 Q51.482 -17.773 48.129 -17.773 Q44.677 -17.773 41.866 -19.894 Q39.056 -22.014 37.576 -24.973 L35.406 -23.789 Q36.984 -20.535 39.845 -18.464 Q42.705 -16.393 45.959 -15.505 V-11.165 Z M47.34 -2.486 Q40.634 -2.486 34.667 -5.051 Q28.7 -7.615 24.212 -12.102 Q19.725 -16.59 17.161 -22.557 Q14.597 -28.523 14.597 -35.23 Q14.597 -42.035 17.161 -47.953 Q19.725 -53.87 24.212 -58.358 Q28.7 -62.845 34.667 -65.409 Q40.634 -67.973 47.34 -67.973 Q54.145 -67.973 60.063 -65.409 Q65.98 -62.845 70.468 -58.358 Q74.955 -53.87 77.519 -47.953 Q80.084 -42.035 80.084 -35.23 Q80.084 -28.523 77.519 -22.557 Q74.955 -16.59 70.468 -12.102 Q65.98 -7.615 60.063 -5.051 Q54.145 -2.486 47.34 -2.486 Z M47.34 -4.459 Q60.161 -4.459 69.136 -13.434 Q78.111 -22.409 78.111 -35.23 Q78.111 -48.051 69.136 -57.026 Q60.161 -66.001 47.34 -66.001 Q34.519 -66.001 25.544 -57.026 Q16.569 -48.051 16.569 -35.23 Q16.569 -22.409 25.544 -13.434 Q34.519 -4.459 47.34 -4.459 Z"/></g></g></svg>